<svg xmlns="http://www.w3.org/2000/svg" viewBox="0 0 240 240" role="img" aria-labelledby="title desc">
  <title id="title">Miauriachi</title>
  <desc id="desc">Premium cat mariachi mark with sombrero, whiskers and guitar detail.</desc>
  <defs>
    <linearGradient id="rim" x1="38" y1="23" x2="205" y2="216" gradientUnits="userSpaceOnUse">
      <stop stop-color="#F8D889"/>
      <stop offset=".52" stop-color="#F1BD55"/>
      <stop offset="1" stop-color="#B87523"/>
    </linearGradient>
    <linearGradient id="hat" x1="58" y1="64" x2="184" y2="122" gradientUnits="userSpaceOnUse">
      <stop stop-color="#FFF3CF"/>
      <stop offset=".55" stop-color="#F1BD55"/>
      <stop offset="1" stop-color="#B87523"/>
    </linearGradient>
  </defs>
  <circle cx="120" cy="120" r="110" fill="#271F1B"/>
  <circle cx="120" cy="120" r="101" fill="#FFF8ED" stroke="url(#rim)" stroke-width="9"/>
  <path d="M54 96c18-31 42-45 66-45s48 14 66 45c-19 14-45 21-66 21s-47-7-66-21Z" fill="url(#hat)"/>
  <path d="M30 101c22-20 53-30 90-30s68 10 90 30c-19 18-55 27-90 27s-71-9-90-27Z" fill="#9D1D2B"/>
  <path d="M50 100c21-10 43-15 70-15s49 5 70 15c-19 9-43 14-70 14s-51-5-70-14Z" fill="#F8D889"/>
  <path d="M69 121c5-29 25-50 51-50s46 21 51 50c17 8 29 25 29 44 0 34-31 55-80 55s-80-21-80-55c0-19 12-36 29-44Z" fill="#271F1B"/>
  <path d="M76 119 56 76l48 29M164 119l20-43-48 29Z" fill="#271F1B"/>
  <path d="M84 126 70 95l35 23M156 118l35-23-14 31Z" fill="#FFF8ED" opacity=".92"/>
  <circle cx="91" cy="155" r="10" fill="#FFF8ED"/>
  <circle cx="149" cy="155" r="10" fill="#FFF8ED"/>
  <circle cx="94" cy="153" r="4" fill="#113F33"/>
  <circle cx="146" cy="153" r="4" fill="#113F33"/>
  <path d="M120 164 109 176h22Z" fill="#F1BD55"/>
  <path d="M101 186c9 8 29 8 38 0" fill="none" stroke="#FFF8ED" stroke-width="7" stroke-linecap="round"/>
  <path d="M83 178 34 166M83 190 35 194M157 178l49-12M157 190l48 4" stroke="#F1BD55" stroke-width="5" stroke-linecap="round"/>
  <path d="M166 193c14 6 26 17 34 34" stroke="#113F33" stroke-width="8" stroke-linecap="round"/>
  <path d="M181 169c10 5 15 17 10 27l-7 14c-5 10-17 13-27 7s-15-17-10-27l7-14c5-10 17-13 27-7Z" fill="#B87523"/>
  <path d="M157 192h30M153 203h26" stroke="#FFF8ED" stroke-width="4" stroke-linecap="round"/>
  <path d="M109 34h22M120 23v22" stroke="#F1BD55" stroke-width="6" stroke-linecap="round"/>
</svg>
